<svg width="32" height="32" viewBox="0 0 32 32" fill="none" xmlns="http://www.w3.org/2000/svg">
<g clip-path="url(#clip0_84_2)">
<circle cx="16" cy="16" r="16" fill="white"/>
<path d="M15.2602 0.0104988C13.6327 0.105499 12.2277 0.375499 10.7977 0.865499C6.43271 2.363 2.89021 5.733 1.15271 10.033C0.120209 12.598 -0.229791 15.4255 0.147709 18.1705C0.582709 21.3055 1.90271 24.183 4.01021 26.583C4.34771 26.9655 5.16771 27.773 5.58521 28.1305C9.26521 31.2855 14.1102 32.598 18.8827 31.7305C24.2402 30.758 28.7777 27.053 30.8352 21.9705C32.1702 18.673 32.3602 14.978 31.3702 11.563C30.5952 8.888 29.1677 6.5105 27.1702 4.558C24.3877 1.843 20.7677 0.245499 16.8877 0.0204988C16.4877 -0.00200124 15.5877 -0.00700124 15.2602 0.0104988ZM17.3477 2.4055C21.2352 2.818 24.6427 4.7505 26.9652 7.858C28.4602 9.8605 29.3452 12.193 29.6002 14.808C29.6452 15.2505 29.6452 16.733 29.6027 17.183C29.3852 19.4505 28.6977 21.473 27.5152 23.333C26.5177 24.898 25.1552 26.2955 23.6102 27.333C22.3952 28.148 20.9877 28.793 19.6227 29.158C19.4377 29.208 19.2652 29.2555 19.2377 29.263C19.1852 29.278 19.1827 29.2905 19.3002 28.7955C19.4077 28.3355 19.4752 27.878 19.4702 27.628C19.4652 27.143 19.4677 27.113 19.5552 26.833C19.7202 26.3155 19.8677 25.9555 20.1277 25.428C20.3077 25.068 20.4252 24.8855 20.6452 24.6355C20.9752 24.2605 21.1652 23.6955 21.2252 22.918C21.2552 22.548 21.2477 22.353 21.1702 21.5705C21.1077 20.9305 21.1852 20.3955 21.4977 19.313C21.8127 18.2155 22.1102 17.498 22.3902 17.1555C22.6327 16.8555 22.9077 16.4105 23.2602 15.7455C23.6402 15.0255 24.0602 14.4455 24.5752 13.918C24.8952 13.593 25.1352 13.413 25.4627 13.248C25.7702 13.0955 25.9652 12.938 26.1527 12.693C26.3377 12.4505 26.4527 12.2355 26.5527 11.9455C26.6252 11.728 26.6327 11.683 26.6352 11.3955C26.6352 10.9155 26.5377 10.5255 26.3652 10.3305C26.2427 10.1905 26.1527 10.173 25.9427 10.243C25.6677 10.3355 25.5777 10.3105 25.3027 10.0605C25.2027 9.9705 25.1127 9.8955 25.1002 9.8955C25.0577 9.8955 25.0227 9.9655 24.9852 10.133C24.9627 10.2255 24.9227 10.3455 24.8977 10.3955C24.7977 10.5905 24.5852 10.688 24.5202 10.568C24.4827 10.498 24.5152 10.378 24.6727 9.9805C24.8752 9.473 24.9977 8.958 24.9977 8.6055C24.9977 8.043 24.5827 6.813 24.2752 6.4655L24.1827 6.363L24.0977 6.408C23.9027 6.5055 23.6177 6.733 22.7852 7.448C22.0552 8.073 21.5777 8.458 20.8727 8.988C19.7777 9.808 18.9102 10.3755 18.5602 10.498C18.3902 10.558 18.2027 10.5555 17.6552 10.478C17.3677 10.438 17.3427 10.438 17.1452 10.4805C16.6577 10.5855 15.9727 10.9355 14.6477 11.763C13.7452 12.3255 13.4127 12.428 12.2477 12.508C11.1077 12.5855 10.5252 12.7305 10.0102 13.068C9.70021 13.268 9.64271 13.3355 9.62771 13.503C9.59521 13.9105 9.90021 14.3755 10.8152 15.2955C11.1202 15.6055 11.3727 15.8705 11.3727 15.8805C11.3727 15.893 11.2452 16.1055 11.0877 16.3555C10.6277 17.0905 10.4677 17.3955 10.2552 17.9455C10.0877 18.383 9.85771 18.7505 9.46271 19.208C8.71771 20.0705 7.67771 21.7655 7.14771 22.978C7.06271 23.1755 7.01771 23.243 6.91271 23.338C6.62021 23.603 6.02271 24.0005 5.52521 24.2655L5.24021 24.4155L5.08521 24.213C3.72771 22.408 2.82271 20.243 2.50021 18.033C2.38521 17.2455 2.36271 16.918 2.36271 15.9955C2.36021 15.0905 2.37771 14.8155 2.47521 14.0955C3.00021 10.268 5.18021 6.798 8.42271 4.628C10.2952 3.378 12.5877 2.578 14.8227 2.3955C15.0077 2.3805 15.2102 2.3655 15.2727 2.3605C15.5452 2.338 17.0077 2.3705 17.3477 2.4055Z" fill="black"/>
</g>
<defs>
<clipPath id="clip0_84_2">
<rect width="32" height="32" fill="white"/>
</clipPath>
</defs>
</svg>
